<svg width="64" height="64" viewBox="0 0 64 64" fill="none" xmlns="http://www.w3.org/2000/svg">
<mask id="path-1-inside-1_15_1284" fill="white">
<path d="M0 0H64V64H8C3.58172 64 0 60.4183 0 56V0Z"/>
</mask>
<path d="M0 0H64H0ZM64 66H8C2.47715 66 -2 61.5228 -2 56H2C2 59.3137 4.68629 62 8 62H64V66ZM8 66C2.47715 66 -2 61.5228 -2 56V0H2V56C2 59.3137 4.68629 62 8 62V66ZM64 0V64V0Z" fill="url(#paint0_linear_15_1284)" mask="url(#path-1-inside-1_15_1284)"/>
<defs>
<linearGradient id="paint0_linear_15_1284" x1="32" y1="0" x2="32" y2="64" gradientUnits="userSpaceOnUse">
<stop stop-color="#1388AB"/>
<stop offset="1" stop-color="#1E5492"/>
</linearGradient>
</defs>
</svg>
