<svg width="48" height="48" viewBox="0 0 48 48" fill="none" xmlns="http://www.w3.org/2000/svg">
<path d="M12.6304 24.8246V30.8251C12.6304 33.8869 13.8467 36.8233 16.0117 38.9883C18.1767 41.1533 21.1131 42.3696 24.1749 42.3696C27.2367 42.3696 30.1731 41.1533 32.3382 38.9883C34.5032 36.8233 35.7195 33.8869 35.7195 30.8251V17.1749C35.7195 14.1131 34.5032 11.1767 32.3382 9.01169C30.1731 6.84666 27.2367 5.63036 24.1749 5.63036C21.1131 5.63036 18.1767 6.84666 16.0117 9.01169C13.8467 11.1767 12.6304 14.1131 12.6304 17.1749C12.6304 17.6563 12.4391 18.118 12.0987 18.4584C11.7583 18.7989 11.2966 18.9901 10.8152 18.9901C10.3338 18.9901 9.87207 18.7989 9.53165 18.4584C9.19124 18.118 9 17.6563 9 17.1749C9 13.1503 10.5988 9.29048 13.4446 6.44463C16.2905 3.59878 20.1503 2 24.1749 2C28.1996 2 32.0594 3.59878 34.9052 6.44463C37.7511 9.29048 39.3498 13.1503 39.3498 17.1749V30.8251C39.3498 34.8497 37.7511 38.7095 34.9052 41.5554C32.0594 44.4012 28.1996 46 24.1749 46C20.1503 46 16.2905 44.4012 13.4446 41.5554C10.5988 38.7095 9 34.8497 9 30.8251V24.8246C9 24.3432 9.19124 23.8815 9.53165 23.5411C9.87207 23.2007 10.3338 23.0094 10.8152 23.0094C11.2966 23.0094 11.7583 23.2007 12.0987 23.5411C12.4391 23.8815 12.6304 24.3432 12.6304 24.8246ZM24.1749 14.5922C24.6563 14.5922 25.118 14.4009 25.4584 14.0605C25.7989 13.7201 25.9901 13.2584 25.9901 12.777V11.107C25.9901 10.6256 25.7989 10.1639 25.4584 9.8235C25.118 9.48309 24.6563 9.29184 24.1749 9.29184C23.6935 9.29184 23.2318 9.48309 22.8914 9.8235C22.551 10.1639 22.3597 10.6256 22.3597 11.107V12.777C22.3597 13.2584 22.551 13.7201 22.8914 14.0605C23.2318 14.4009 23.6935 14.5922 24.1749 14.5922ZM22.3597 24.7053C22.3597 25.1867 22.551 25.6484 22.8914 25.9889C23.2318 26.3293 23.6935 26.5205 24.1749 26.5205C24.6563 26.5205 25.118 26.3293 25.4584 25.9889C25.7989 25.6484 25.9901 25.1867 25.9901 24.7053V18.3678C25.9901 17.8863 25.7989 17.4246 25.4584 17.0842C25.118 16.7438 24.6563 16.5526 24.1749 16.5526C23.6935 16.5526 23.2318 16.7438 22.8914 17.0842C22.551 17.4246 22.3597 17.8863 22.3597 18.3678V24.7053Z" fill="url(#paint0_linear_7_270)"/>
<defs>
<linearGradient id="paint0_linear_7_270" x1="24.1749" y1="2" x2="24.1749" y2="46" gradientUnits="userSpaceOnUse">
<stop stop-color="#1388AB"/>
<stop offset="1" stop-color="#1E5492"/>
</linearGradient>
</defs>
</svg>
