<svg width="48" height="48" viewBox="0 0 48 48" fill="none" xmlns="http://www.w3.org/2000/svg">
<path d="M44.4936 9.10667C45.4579 10.0782 45.9991 11.3915 45.9991 12.7604C45.9991 14.1292 45.4579 15.4426 44.4936 16.4141L21.4097 39.8507C21.072 40.1945 20.6115 40.3902 20.1296 40.3946C19.6477 40.3989 19.1837 40.2117 18.8399 39.874C18.496 39.5363 18.3004 39.0759 18.296 38.5939C18.2916 38.112 18.4789 37.6481 18.8165 37.3042L41.916 13.8573C42.2027 13.5662 42.3633 13.1741 42.3633 12.7656C42.3633 12.357 42.2027 11.9649 41.916 11.6739L36.2993 6.0468C36.0087 5.76327 35.6188 5.60458 35.2128 5.60458C34.8068 5.60458 34.4169 5.76327 34.1263 6.0468L6.63927 33.5598C6.38416 33.8163 6.22645 34.1538 6.19325 34.514L5.67463 40.6701C5.6584 40.8929 5.69033 41.1165 5.76826 41.3259C5.84618 41.5352 5.96827 41.7253 6.12622 41.8833C6.28417 42.0412 6.47428 42.1633 6.68362 42.2412C6.89296 42.3192 7.11662 42.3511 7.33941 42.3349L13.4955 41.8162C13.8551 41.7845 14.1924 41.6286 14.4497 41.3754C14.7936 41.035 15.2586 40.8451 15.7425 40.8475C16.2264 40.85 16.6895 41.0445 17.0299 41.3884C17.3703 41.7323 17.5602 42.1973 17.5578 42.6811C17.5553 43.165 17.3608 43.6281 17.0169 43.9685C16.1552 44.8276 15.0188 45.3563 13.8066 45.4622L7.65058 45.9808C7.50191 45.9808 7.35151 45.9808 7.19938 45.9808C6.48049 45.9826 5.76907 45.835 5.11028 45.5472C4.45149 45.2594 3.85973 44.8379 3.37254 44.3092C2.88535 43.7806 2.51339 43.1564 2.28027 42.4764C2.04714 41.7963 1.95794 41.0753 2.01833 40.3589L2.53695 34.2029C2.64282 32.9907 3.17153 31.8543 4.03059 30.9926L31.5436 3.50554C32.515 2.54118 33.8284 2 35.1973 2C36.5661 2 37.8795 2.54118 38.851 3.50554L44.4936 9.10667ZM44.1876 42.3401H24.6251C24.1437 42.3401 23.682 42.5313 23.3416 42.8717C23.0012 43.2121 22.8099 43.6738 22.8099 44.1552C22.8099 44.6367 23.0012 45.0984 23.3416 45.4388C23.682 45.7792 24.1437 45.9704 24.6251 45.9704H44.1876C44.669 45.9704 45.1307 45.7792 45.4711 45.4388C45.8115 45.0984 46.0028 44.6367 46.0028 44.1552C46.0028 43.6738 45.8115 43.2121 45.4711 42.8717C45.1307 42.5313 44.669 42.3401 44.1876 42.3401Z" fill="url(#paint0_linear_7_269)"/>
<defs>
<linearGradient id="paint0_linear_7_269" x1="24.0014" y1="2" x2="24.0014" y2="45.9808" gradientUnits="userSpaceOnUse">
<stop stop-color="#1388AB"/>
<stop offset="1" stop-color="#1E5492"/>
</linearGradient>
</defs>
</svg>
