<svg width="48" height="48" viewBox="0 0 48 48" fill="none" xmlns="http://www.w3.org/2000/svg">
<path d="M2 15.1419V7.44554C2.00137 6.00172 2.57554 4.61742 3.59648 3.59648C4.61742 2.57554 6.00172 2.00137 7.44555 2H15.1419C15.6233 2 16.085 2.19124 16.4254 2.53165C16.7659 2.87207 16.9571 3.33377 16.9571 3.81518C16.9571 4.2966 16.7659 4.7583 16.4254 5.09871C16.085 5.43912 15.6233 5.63036 15.1419 5.63036H7.44555C6.96413 5.63036 6.50243 5.8216 6.16202 6.16202C5.82161 6.50243 5.63036 6.96413 5.63036 7.44554V15.1419C5.63036 15.6233 5.43912 16.085 5.09871 16.4254C4.7583 16.7659 4.2966 16.9571 3.81518 16.9571C3.33377 16.9571 2.87207 16.7659 2.53165 16.4254C2.19124 16.085 2 15.6233 2 15.1419ZM40.5545 2H32.8581C32.3767 2 31.915 2.19124 31.5746 2.53165C31.2341 2.87207 31.0429 3.33377 31.0429 3.81518C31.0429 4.2966 31.2341 4.7583 31.5746 5.09871C31.915 5.43912 32.3767 5.63036 32.8581 5.63036H40.5545C41.0359 5.63036 41.4976 5.8216 41.838 6.16202C42.1784 6.50243 42.3696 6.96413 42.3696 7.44554V15.1419C42.3696 15.6233 42.5609 16.085 42.9013 16.4254C43.2417 16.7659 43.7034 16.9571 44.1848 16.9571C44.6662 16.9571 45.1279 16.7659 45.4683 16.4254C45.8088 16.085 46 15.6233 46 15.1419V7.44554C45.9986 6.00172 45.4245 4.61742 44.4035 3.59648C43.3826 2.57554 41.9983 2.00137 40.5545 2ZM15.1419 46C15.6233 46 16.085 45.8088 16.4254 45.4683C16.7659 45.1279 16.9571 44.6662 16.9571 44.1848C16.9571 43.7034 16.7659 43.2417 16.4254 42.9013C16.085 42.5609 15.6233 42.3696 15.1419 42.3696H7.44555C6.96413 42.3696 6.50243 42.1784 6.16202 41.838C5.82161 41.4976 5.63036 41.0359 5.63036 40.5545V32.8581C5.63036 32.3767 5.43912 31.915 5.09871 31.5746C4.7583 31.2341 4.2966 31.0429 3.81518 31.0429C3.33377 31.0429 2.87207 31.2341 2.53165 31.5746C2.19124 31.915 2 32.3767 2 32.8581V40.5545C2.00137 41.9983 2.57554 43.3826 3.59648 44.4035C4.61742 45.4245 6.00172 45.9986 7.44555 46H15.1419ZM44.1848 31.0429C43.7034 31.0429 43.2417 31.2341 42.9013 31.5746C42.5609 31.915 42.3696 32.3767 42.3696 32.8581V40.5545C42.3696 41.0359 42.1784 41.4976 41.838 41.838C41.4976 42.1784 41.0359 42.3696 40.5545 42.3696H32.8581C32.3767 42.3696 31.915 42.5609 31.5746 42.9013C31.2341 43.2417 31.0429 43.7034 31.0429 44.1848C31.0429 44.6662 31.2341 45.1279 31.5746 45.4683C31.915 45.8088 32.3767 46 32.8581 46H40.5545C41.9983 45.9986 43.3826 45.4245 44.4035 44.4035C45.4245 43.3826 45.9986 41.9983 46 40.5545V32.8581C46 32.3767 45.8088 31.915 45.4683 31.5746C45.1279 31.2341 44.6662 31.0429 44.1848 31.0429ZM44.1848 22.1848H13.6275C13.1461 22.1848 12.6844 22.3761 12.344 22.7165C12.0036 23.0569 11.8124 23.5186 11.8124 24C11.8124 24.4814 12.0036 24.9431 12.344 25.2835C12.6844 25.6239 13.1461 25.8152 13.6275 25.8152H44.2263C44.7077 25.8152 45.1694 25.6239 45.5098 25.2835C45.8503 24.9431 46.0415 24.4814 46.0415 24C46.0415 23.5186 45.8503 23.0569 45.5098 22.7165C45.1694 22.3761 44.7077 22.1848 44.2263 22.1848H44.1848ZM3.81518 25.8152H6.88543C7.36685 25.8152 7.82855 25.6239 8.16896 25.2835C8.50937 24.9431 8.70061 24.4814 8.70061 24C8.70061 23.5186 8.50937 23.0569 8.16896 22.7165C7.82855 22.3761 7.36685 22.1848 6.88543 22.1848H3.81518C3.33377 22.1848 2.87207 22.3761 2.53165 22.7165C2.19124 23.0569 2 23.5186 2 24C2 24.4814 2.19124 24.9431 2.53165 25.2835C2.87207 25.6239 3.33377 25.8152 3.81518 25.8152ZM16.5837 36.1876H31.4163C31.8977 36.1876 32.3594 35.9964 32.6998 35.656C33.0403 35.3156 33.2315 34.8539 33.2315 34.3725C33.2315 33.891 33.0403 33.4293 32.6998 33.0889C32.3594 32.7485 31.8977 32.5573 31.4163 32.5573H16.5837C16.1023 32.5573 15.6406 32.7485 15.3002 33.0889C14.9597 33.4293 14.7685 33.891 14.7685 34.3725C14.7685 34.8539 14.9597 35.3156 15.3002 35.656C15.6406 35.9964 16.1023 36.1876 16.5837 36.1876ZM14.7685 13.6275C14.7685 14.109 14.9597 14.5706 15.3002 14.9111C15.6406 15.2515 16.1023 15.4427 16.5837 15.4427H31.4163C31.8977 15.4427 32.3594 15.2515 32.6998 14.9111C33.0403 14.5706 33.2315 14.109 33.2315 13.6275C33.2315 13.1461 33.0403 12.6844 32.6998 12.344C32.3594 12.0036 31.8977 11.8124 31.4163 11.8124H16.5837C16.1023 11.8124 15.6406 12.0036 15.3002 12.344C14.9597 12.6844 14.7685 13.1461 14.7685 13.6275Z" fill="url(#paint0_linear_7_271)"/>
<defs>
<linearGradient id="paint0_linear_7_271" x1="24.0207" y1="2" x2="24.0207" y2="46" gradientUnits="userSpaceOnUse">
<stop stop-color="#1388AB"/>
<stop offset="1" stop-color="#1E5492"/>
</linearGradient>
</defs>
</svg>
