<svg width="48" height="48" viewBox="0 0 48 48" fill="none" xmlns="http://www.w3.org/2000/svg">
<path d="M2 30.4653V8.92692C2.00137 7.62064 2.5209 6.36826 3.44458 5.44458C4.36826 4.5209 5.62064 4.00137 6.92692 4H41.0731C42.3794 4.00137 43.6317 4.5209 44.5554 5.44458C45.4791 6.36826 45.9986 7.62064 46 8.92692V30.4653C45.9986 31.7716 45.4791 33.024 44.5554 33.9477C43.6317 34.8714 42.3794 35.3909 41.0731 35.3923H25.8152V40.6874H32.9255C33.4069 40.6874 33.8686 40.8787 34.209 41.2191C34.5494 41.5595 34.7407 42.0212 34.7407 42.5026C34.7407 42.984 34.5494 43.4457 34.209 43.7861C33.8686 44.1265 33.4069 44.3178 32.9255 44.3178H15.0745C14.5931 44.3178 14.1314 44.1265 13.791 43.7861C13.4506 43.4457 13.2593 42.984 13.2593 42.5026C13.2593 42.0212 13.4506 41.5595 13.791 41.2191C14.1314 40.8787 14.5931 40.6874 15.0745 40.6874H22.1848V35.3923H15.0745C14.5931 35.3923 14.1314 35.201 13.791 34.8606C13.4506 34.5202 13.2593 34.0585 13.2593 33.5771C13.2593 33.0957 13.4506 32.634 13.791 32.2936C14.1314 31.9531 14.5931 31.7619 15.0745 31.7619H41.0731C41.4169 31.7619 41.7467 31.6253 41.9899 31.3822C42.233 31.139 42.3696 30.8092 42.3696 30.4653V8.92692C42.3696 8.58305 42.233 8.25327 41.9899 8.01012C41.7467 7.76696 41.4169 7.63036 41.0731 7.63036H6.92692C6.58305 7.63036 6.25327 7.76696 6.01012 8.01012C5.76696 8.25327 5.63036 8.58305 5.63036 8.92692V30.4653C5.63036 30.8092 5.76696 31.139 6.01012 31.3822C6.25327 31.6253 6.58305 31.7619 6.92692 31.7619C7.40834 31.7619 7.87004 31.9531 8.21045 32.2936C8.55086 32.634 8.7421 33.0957 8.7421 33.5771C8.7421 34.0585 8.55086 34.5202 8.21045 34.8606C7.87004 35.201 7.40834 35.3923 6.92692 35.3923C5.62064 35.3909 4.36826 34.8714 3.44458 33.9477C2.5209 33.024 2.00137 31.7716 2 30.4653ZM25.7063 28.8265C26.1877 28.8265 26.6494 28.6353 26.9898 28.2948C27.3302 27.9544 27.5215 27.4927 27.5215 27.0113C27.5215 26.5299 27.3302 26.0682 26.9898 25.7278C26.6494 25.3874 26.1877 25.1961 25.7063 25.1961H22.2937C21.8123 25.1961 21.3506 25.3874 21.0102 25.7278C20.6698 26.0682 20.4785 26.5299 20.4785 27.0113C20.4785 27.4927 20.6698 27.9544 21.0102 28.2948C21.3506 28.6353 21.8123 28.8265 22.2937 28.8265H25.7063Z" fill="url(#paint0_linear_7_268)"/>
<defs>
<linearGradient id="paint0_linear_7_268" x1="24" y1="4" x2="24" y2="44.3178" gradientUnits="userSpaceOnUse">
<stop stop-color="#1388AB"/>
<stop offset="1" stop-color="#1E5492"/>
</linearGradient>
</defs>
</svg>
