<svg width="64" height="64" viewBox="0 0 64 64" fill="none" xmlns="http://www.w3.org/2000/svg">
<mask id="path-1-inside-1_15_1282" fill="white">
<path d="M0 8C0 3.58172 3.58172 0 8 0H64V64H0V8Z"/>
</mask>
<path d="M-2 8C-2 2.47715 2.47715 -2 8 -2H64V2H8C4.68629 2 2 4.68629 2 8H-2ZM64 64H0H64ZM-2 64V8C-2 2.47715 2.47715 -2 8 -2V2C4.68629 2 2 4.68629 2 8V64H-2ZM64 0V64V0Z" fill="url(#paint0_linear_15_1282)" mask="url(#path-1-inside-1_15_1282)"/>
<defs>
<linearGradient id="paint0_linear_15_1282" x1="32" y1="0" x2="32" y2="64" gradientUnits="userSpaceOnUse">
<stop stop-color="#1388AB"/>
<stop offset="1" stop-color="#1E5492"/>
</linearGradient>
</defs>
</svg>
