<svg width="81" height="80" viewBox="0 0 81 80" fill="none" xmlns="http://www.w3.org/2000/svg">
<path d="M29.064 1.65537e-05H10.1236C7.43866 1.65537e-05 4.86368 1.05507 2.96514 2.93308C1.06659 4.81109 0 7.35821 0 10.0141L0 28.7496C0 30.0647 0.261855 31.3669 0.770614 32.5818C1.27937 33.7968 2.02507 34.9007 2.96514 35.8306C4.86368 37.7086 7.43866 38.7637 10.1236 38.7637H15.9585C16.3483 36.6486 17.1182 34.6198 18.2317 32.7734H10.1236C9.04963 32.7734 8.01964 32.3514 7.26022 31.6002C6.5008 30.849 6.07416 29.8302 6.07416 28.7678V10.0141C6.0766 8.95334 6.50431 7.93682 7.26347 7.18759C8.02262 6.43835 9.05122 6.01758 10.1236 6.01758H29.064C29.5965 6.01519 30.1243 6.11673 30.6171 6.31639C31.11 6.51605 31.5581 6.80991 31.936 7.18114C32.3139 7.55237 32.614 7.99368 32.8192 8.47981C33.0244 8.96593 33.1306 9.48732 33.1318 10.0141V18.2075C33.8237 17.5653 34.4811 16.8876 35.1013 16.1773C36.1492 14.961 37.6077 14.162 39.206 13.9287V10.0141C39.206 8.69752 38.9435 7.39383 38.4336 6.17768C37.9237 4.96152 37.1763 3.85677 36.2343 2.92663C35.2923 1.9965 34.1741 1.25925 32.9437 0.757063C31.7134 0.254879 30.395 -0.00237727 29.064 1.65537e-05Z" fill="white"/>
<path d="M34.3834 65.5924L33.1318 65.8109V69.5252C33.1318 70.5884 32.7055 71.6082 31.9463 72.3609C31.1872 73.1135 30.1572 73.5376 29.0824 73.54H10.1236C9.04878 73.5376 8.01881 73.1135 7.25966 72.3609C6.5005 71.6082 6.07416 70.5884 6.07416 69.5252V50.7989C6.07416 49.7365 6.5008 48.7177 7.26022 47.9665C8.01964 47.2153 9.04963 46.7932 10.1236 46.7932H16.4094C15.9354 45.1968 15.6968 43.5411 15.7008 41.8772C15.7008 41.5222 15.7008 41.158 15.7008 40.803H10.1236C8.79416 40.803 7.47772 41.062 6.24947 41.5653C5.02122 42.0685 3.9052 42.8061 2.96514 43.736C2.02507 44.6659 1.27937 45.7699 0.770614 46.9848C0.261855 48.1998 0 49.502 0 50.8171L0 69.5252C0 72.1812 1.06659 74.7283 2.96514 76.6063C4.86368 78.4843 7.43866 79.5393 10.1236 79.5393H29.064C30.3934 79.5393 31.7098 79.2803 32.9381 78.7771C34.1663 78.2738 35.2824 77.5362 36.2224 76.6063C37.1625 75.6764 37.9082 74.5724 38.4169 73.3575C38.9257 72.1425 39.1876 70.8403 39.1876 69.5252V65.1008C37.5757 65.141 35.9695 65.3054 34.3834 65.5924Z" fill="white"/>
<path d="M70.2856 40.7754H64.69C64.69 41.1304 64.69 41.4946 64.69 41.8587C64.6952 43.53 64.4502 45.1927 63.963 46.793H70.2488C71.3236 46.793 72.3546 47.2147 73.1155 47.9656C73.8763 48.7166 74.305 49.7354 74.3075 50.7986V69.525C74.305 70.589 73.8767 71.6088 73.116 72.3612C72.3554 73.1136 71.3245 73.5373 70.2488 73.5397H51.3545C50.2797 73.5373 49.2497 73.1133 48.4905 72.3606C47.7314 71.608 47.305 70.5882 47.305 69.525V65.8015L46.0718 65.5922C44.4687 65.3164 42.848 65.1521 41.2217 65.1006V69.525C41.2217 72.1809 42.2883 74.728 44.1868 76.606C46.0854 78.484 48.6603 79.5391 51.3453 79.5391H70.2856C72.9706 79.5391 75.5456 78.484 77.4441 76.606C79.3427 74.728 80.4092 72.1809 80.4092 69.525V50.7986C80.4104 49.4828 80.1495 48.1796 79.6413 46.9636C79.133 45.7476 78.3875 44.6425 77.4474 43.7117C76.5072 42.7808 75.3907 42.0424 74.1619 41.5385C72.933 41.0347 71.6159 40.7754 70.2856 40.7754Z" fill="white"/>
<path d="M70.2855 0H51.3543C48.6694 0 46.0944 1.05505 44.1958 2.93306C42.2973 4.81107 41.2307 7.3582 41.2307 10.0141V13.9196C42.8372 14.1502 44.3033 14.9531 45.3538 16.1773C45.9683 16.8898 46.6227 17.5676 47.3141 18.2075V10.0141C47.3165 8.95248 47.7439 7.93503 48.5028 7.18434C49.2617 6.43366 50.2903 6.01087 51.3635 6.00846H70.2855C71.3596 6.01085 72.3891 6.43336 73.1494 7.18378C73.9098 7.93421 74.3393 8.95164 74.3441 10.0141V28.7769C74.3368 29.8378 73.9063 30.8529 73.1462 31.6013C72.3861 32.3498 71.358 32.771 70.2855 32.7734H62.205C63.302 34.6353 64.0532 36.6764 64.423 38.8001H70.2487C72.9336 38.8001 75.5086 37.745 77.4071 35.867C79.3057 33.989 80.3723 31.4419 80.3723 28.786V10.0141C80.3723 7.36449 79.3107 4.82287 77.4201 2.94591C75.5296 1.06894 72.964 0.00963494 70.2855 0Z" fill="white"/>
<path d="M59.8212 41.8773C59.8492 43.5693 59.5037 45.247 58.8088 46.7933C57.1154 50.4348 53.5078 52.6652 48.9061 52.6652C48.3686 52.6643 47.8323 52.6124 47.3047 52.5105C45.4626 52.0896 43.7432 51.2547 42.2798 50.0707C43.2989 53.858 44.8477 57.486 46.8814 60.8495L46.4672 60.7767L45.6205 60.6583C45.2064 60.5946 44.783 60.54 44.3597 60.4944L43.513 60.4125C42.7491 60.3488 41.976 60.3033 41.203 60.2851H40.1354H39.2151C37.7305 60.3204 36.2493 60.442 34.7791 60.6492L33.5366 60.8495C35.5774 57.4863 37.1266 53.8543 38.1383 50.0616C36.6803 51.2453 34.9677 52.083 33.1317 52.5105C32.6042 52.6133 32.0679 52.6652 31.5303 52.6652C26.9287 52.6652 23.321 50.3984 21.6276 46.7933C20.9143 45.251 20.55 43.5733 20.56 41.8773C20.56 41.5132 20.56 41.1581 20.606 40.8031C20.6633 40.1279 20.7741 39.4583 20.9374 38.8003C21.5445 36.5812 22.6414 34.5229 24.1493 32.7736C26.3897 30.2599 28.8742 27.9699 31.5671 25.9367L33.1317 24.6531C35.1762 23.0431 37.0761 21.2613 38.8101 19.3274C38.9273 19.1932 39.0638 19.0766 39.2151 18.9814C39.4897 18.8053 39.8082 18.7076 40.1354 18.6992H40.2366C40.5639 18.7071 40.8825 18.8048 41.157 18.9814C41.312 19.0715 41.4493 19.1887 41.5619 19.3274C43.2982 21.2591 45.1979 23.0408 47.2403 24.6531L48.7957 25.9185C51.521 27.9501 54.0337 30.2466 56.2963 32.7736C57.7973 34.5179 58.888 36.5701 59.4899 38.782C59.6541 39.4368 59.7649 40.1035 59.8212 40.7758C59.8406 41.1427 59.8406 41.5104 59.8212 41.8773Z" fill="#C72725"/>
</svg>
