<svg width="145" height="67" viewBox="0 0 145 67" fill="none" xmlns="http://www.w3.org/2000/svg">
<path d="M5.84683 26H0.385412L8.70701 1.89443H15.2748L23.5847 26H18.1233L12.0851 7.40293H11.8968L5.84683 26ZM5.50549 16.5249H18.4057V20.5033H5.50549V16.5249ZM37.9856 18.3022V7.92082H42.9998V26H38.1857V22.7161H37.9974C37.5894 23.7754 36.9106 24.6268 35.9611 25.2702C35.0195 25.9137 33.87 26.2354 32.5124 26.2354C31.304 26.2354 30.2408 25.9608 29.3227 25.4115C28.4046 24.8622 27.6866 24.0814 27.1687 23.0692C26.6587 22.0569 26.3997 20.8446 26.3919 19.4322V7.92082H31.406V18.5376C31.4139 19.6048 31.7003 20.4483 32.2653 21.0682C32.8302 21.6881 33.5875 21.9981 34.5369 21.9981C35.1411 21.9981 35.7061 21.8608 36.2319 21.5861C36.7576 21.3037 37.1813 20.8878 37.5031 20.3385C37.8326 19.7892 37.9935 19.1105 37.9856 18.3022ZM56.6268 7.92082V11.6873H45.7393V7.92082H56.6268ZM48.2111 3.58935H53.2252V20.4444C53.2252 20.9074 53.2959 21.2683 53.4371 21.5273C53.5783 21.7784 53.7745 21.9549 54.0256 22.0569C54.2846 22.159 54.5827 22.21 54.9202 22.21C55.1556 22.21 55.391 22.1903 55.6264 22.1511C55.8618 22.104 56.0423 22.0687 56.1678 22.0452L56.9564 25.7764C56.7053 25.8548 56.3522 25.9451 55.8971 26.0471C55.442 26.1569 54.8888 26.2236 54.2375 26.2472C53.0291 26.2943 51.9697 26.1334 51.0595 25.7646C50.1571 25.3958 49.4548 24.823 48.9526 24.0461C48.4504 23.2693 48.2032 22.2884 48.2111 21.1036V3.58935ZM67.8675 26.3531C66.0392 26.3531 64.458 25.9647 63.1241 25.1878C61.7979 24.4032 60.7739 23.3124 60.052 21.9157C59.3301 20.5111 58.9691 18.8829 58.9691 17.031C58.9691 15.1635 59.3301 13.5313 60.052 12.1346C60.7739 10.73 61.7979 9.63928 63.1241 8.86244C64.458 8.07776 66.0392 7.68541 67.8675 7.68541C69.6958 7.68541 71.273 8.07776 72.5991 8.86244C73.9331 9.63928 74.9611 10.73 75.683 12.1346C76.4049 13.5313 76.7658 15.1635 76.7658 17.031C76.7658 18.8829 76.4049 20.5111 75.683 21.9157C74.9611 23.3124 73.9331 24.4032 72.5991 25.1878C71.273 25.9647 69.6958 26.3531 67.8675 26.3531ZM67.891 22.4689C68.7228 22.4689 69.4172 22.2335 69.9744 21.7627C70.5315 21.284 70.9513 20.6327 71.2338 19.8088C71.5241 18.9849 71.6693 18.0472 71.6693 16.9957C71.6693 15.9442 71.5241 15.0065 71.2338 14.1826C70.9513 13.3587 70.5315 12.7074 69.9744 12.2287C69.4172 11.7501 68.7228 11.5108 67.891 11.5108C67.0514 11.5108 66.3452 11.7501 65.7724 12.2287C65.2074 12.7074 64.7797 13.3587 64.4894 14.1826C64.2069 15.0065 64.0657 15.9442 64.0657 16.9957C64.0657 18.0472 64.2069 18.9849 64.4894 19.8088C64.7797 20.6327 65.2074 21.284 65.7724 21.7627C66.3452 22.2335 67.0514 22.4689 67.891 22.4689ZM96.1044 9.68636C95.9397 9.11354 95.7082 8.60742 95.41 8.16799C95.1118 7.72072 94.7469 7.34407 94.3153 7.03805C93.8916 6.72417 93.4051 6.48484 92.8558 6.32006C92.3144 6.15527 91.7141 6.07288 91.055 6.07288C89.823 6.07288 88.7401 6.37891 87.8064 6.99096C86.8804 7.60302 86.1585 8.49364 85.6406 9.66282C85.1227 10.8242 84.8638 12.2444 84.8638 13.9237C84.8638 15.6029 85.1188 17.031 85.6289 18.2081C86.1389 19.3851 86.8608 20.2836 87.7946 20.9035C88.7284 21.5155 89.8309 21.8215 91.1021 21.8215C92.2555 21.8215 93.2403 21.6175 94.0564 21.2095C94.8803 20.7936 95.5081 20.209 95.9397 19.4557C96.3791 18.7024 96.5988 17.8118 96.5988 16.7839L97.6346 16.9369H91.4199V13.0998H101.507V16.1365C101.507 18.2551 101.06 20.0756 100.165 21.5979C99.2706 23.1124 98.0387 24.2815 96.4693 25.1055C94.8999 25.9215 93.103 26.3296 91.0785 26.3296C88.8186 26.3296 86.8334 25.8313 85.1227 24.8347C83.4121 23.8303 82.0782 22.4061 81.1208 20.5621C80.1714 18.7103 79.6966 16.5131 79.6966 13.9708C79.6966 12.0169 79.9791 10.2749 80.5441 8.74474C81.1169 7.20675 81.9173 5.90417 82.9452 4.837C83.9732 3.76983 85.1698 2.95768 86.5352 2.40055C87.9005 1.84342 89.3797 1.56486 90.9726 1.56486C92.3379 1.56486 93.6091 1.76495 94.7862 2.16514C95.9632 2.55749 97.0068 3.11461 97.9171 3.83652C98.8351 4.55844 99.5845 5.41767 100.165 6.41422C100.746 7.40292 101.119 8.49364 101.283 9.68636H96.1044ZM105.241 26V7.92082H110.102V11.0753H110.291C110.62 9.95316 111.173 9.1057 111.95 8.53288C112.727 7.95221 113.622 7.66187 114.634 7.66187C114.885 7.66187 115.156 7.67757 115.446 7.70895C115.736 7.74034 115.991 7.7835 116.211 7.83843V12.2876C115.976 12.217 115.65 12.1542 115.234 12.0993C114.818 12.0443 114.438 12.0169 114.092 12.0169C113.355 12.0169 112.696 12.1777 112.115 12.4995C111.542 12.8133 111.087 13.2528 110.75 13.8177C110.42 14.3827 110.255 15.034 110.255 15.7716V26H105.241ZM118.803 26V7.92082H123.818V26H118.803ZM121.322 5.5903C120.577 5.5903 119.937 5.34312 119.404 4.84877C118.878 4.34657 118.615 3.74629 118.615 3.04791C118.615 2.35739 118.878 1.76495 119.404 1.2706C119.937 0.7684 120.577 0.517299 121.322 0.517299C122.068 0.517299 122.703 0.7684 123.229 1.2706C123.763 1.76495 124.029 2.35739 124.029 3.04791C124.029 3.74629 123.763 4.34657 123.229 4.84877C122.703 5.34312 122.068 5.5903 121.322 5.5903ZM134.496 26.2943C133.123 26.2943 131.879 25.9411 130.765 25.2349C129.659 24.5209 128.78 23.4733 128.128 22.0923C127.485 20.7034 127.163 19.0006 127.163 16.9839C127.163 14.9124 127.497 13.19 128.164 11.8168C128.831 10.4357 129.717 9.40388 130.824 8.7212C131.938 8.03068 133.158 7.68541 134.484 7.68541C135.497 7.68541 136.34 7.85804 137.015 8.20331C137.698 8.54072 138.247 8.96445 138.663 9.4745C139.087 9.9767 139.408 10.4711 139.628 10.9576H139.781V1.89443H144.783V26H139.84V23.1045H139.628C139.393 23.6067 139.059 24.105 138.628 24.5993C138.204 25.0858 137.651 25.49 136.968 25.8117C136.293 26.1334 135.469 26.2943 134.496 26.2943ZM136.085 22.3041C136.893 22.3041 137.576 22.0844 138.133 21.645C138.698 21.1977 139.13 20.5739 139.428 19.7735C139.734 18.9731 139.887 18.0354 139.887 16.9604C139.887 15.8854 139.738 14.9516 139.44 14.1591C139.142 13.3665 138.71 12.7545 138.145 12.3229C137.58 11.8913 136.893 11.6755 136.085 11.6755C135.261 11.6755 134.567 11.8992 134.002 12.3465C133.437 12.7937 133.009 13.4136 132.719 14.2062C132.429 14.9987 132.283 15.9168 132.283 16.9604C132.283 18.0119 132.429 18.9417 132.719 19.75C133.017 20.5504 133.445 21.1781 134.002 21.6332C134.567 22.0805 135.261 22.3041 136.085 22.3041Z" fill="#C72725"/>
<path d="M1.69192 66V41.8944H11.2023C13.0306 41.8944 14.5882 42.2436 15.8751 42.942C17.162 43.6325 18.1429 44.5937 18.8177 45.8257C19.5004 47.0498 19.8417 48.4623 19.8417 50.063C19.8417 51.6638 19.4965 53.0762 18.8059 54.3003C18.1154 55.5244 17.1149 56.4778 15.8045 57.1605C14.5019 57.8432 12.9247 58.1845 11.0728 58.1845H5.01114V54.1002H10.2489C11.2298 54.1002 12.038 53.9315 12.6736 53.5941C13.317 53.2488 13.7957 52.7741 14.1096 52.1699C14.4313 51.5578 14.5922 50.8555 14.5922 50.063C14.5922 49.2626 14.4313 48.5643 14.1096 47.9679C13.7957 47.3637 13.317 46.8968 12.6736 46.5672C12.0302 46.2298 11.2141 46.0611 10.2254 46.0611H6.78846V66H1.69192ZM30.9352 66.3531C29.1069 66.3531 27.5258 65.9647 26.1918 65.1878C24.8657 64.4032 23.8417 63.3124 23.1197 61.9157C22.3978 60.5111 22.0369 58.8829 22.0369 57.031C22.0369 55.1635 22.3978 53.5313 23.1197 52.1346C23.8417 50.73 24.8657 49.6393 26.1918 48.8624C27.5258 48.0778 29.1069 47.6854 30.9352 47.6854C32.7635 47.6854 34.3408 48.0778 35.6669 48.8624C37.0009 49.6393 38.0288 50.73 38.7507 52.1346C39.4726 53.5313 39.8336 55.1635 39.8336 57.031C39.8336 58.8829 39.4726 60.5111 38.7507 61.9157C38.0288 63.3124 37.0009 64.4032 35.6669 65.1878C34.3408 65.9647 32.7635 66.3531 30.9352 66.3531ZM30.9588 62.4689C31.7905 62.4689 32.485 62.2335 33.0421 61.7627C33.5992 61.284 34.019 60.6327 34.3015 59.8088C34.5919 58.9849 34.737 58.0472 34.737 56.9957C34.737 55.9442 34.5919 55.0065 34.3015 54.1826C34.019 53.3587 33.5992 52.7074 33.0421 52.2287C32.485 51.7501 31.7905 51.5108 30.9588 51.5108C30.1192 51.5108 29.4129 51.7501 28.8401 52.2287C28.2751 52.7074 27.8475 53.3587 27.5571 54.1826C27.2747 55.0065 27.1334 55.9442 27.1334 56.9957C27.1334 58.0472 27.2747 58.9849 27.5571 59.8088C27.8475 60.6327 28.2751 61.284 28.8401 61.7627C29.4129 62.2335 30.1192 62.4689 30.9588 62.4689ZM47.6373 60.7975L47.6491 54.7829H48.3788L54.1698 47.9208H59.9255L52.1453 57.0075H50.9565L47.6373 60.7975ZM43.0939 66V41.8944H48.1081V66H43.0939ZM54.3934 66L49.0733 58.1257L52.416 54.5828L60.2668 66H54.3934ZM69.8802 66.3531C68.0205 66.3531 66.4197 65.9765 65.0779 65.2232C63.744 64.462 62.716 63.387 61.9941 61.9981C61.2722 60.6014 60.9112 58.9496 60.9112 57.0428C60.9112 55.1831 61.2722 53.5509 61.9941 52.1464C62.716 50.7418 63.7322 49.6471 65.0426 48.8624C66.3609 48.0778 67.9067 47.6854 69.6801 47.6854C70.8728 47.6854 71.9832 47.8777 73.0111 48.2622C74.0469 48.6388 74.9493 49.2077 75.7183 49.9689C76.4951 50.73 77.0993 51.6873 77.5309 52.8408C77.9625 53.9864 78.1783 55.3283 78.1783 56.8662V58.2434H62.9122V55.136H73.4584C73.4584 54.4141 73.3014 53.7746 72.9876 53.2175C72.6737 52.6603 72.2382 52.2248 71.6811 51.911C71.1318 51.5892 70.4923 51.4284 69.7625 51.4284C69.0014 51.4284 68.3265 51.6049 67.738 51.958C67.1573 52.3033 66.7022 52.7702 66.3727 53.3587C66.0431 53.9394 65.8744 54.5867 65.8665 55.3008V58.2551C65.8665 59.1497 66.0313 59.9226 66.3609 60.5739C66.6983 61.2252 67.173 61.7274 67.7851 62.0805C68.3971 62.4336 69.123 62.6102 69.9626 62.6102C70.5197 62.6102 71.0298 62.5317 71.4927 62.3747C71.9557 62.2178 72.352 61.9824 72.6815 61.6685C73.0111 61.3547 73.2622 60.9702 73.4348 60.515L78.0723 60.8211C77.8369 61.9353 77.3543 62.9083 76.6246 63.7401C75.9027 64.564 74.9689 65.2075 73.8233 65.6704C72.6855 66.1255 71.3711 66.3531 69.8802 66.3531ZM81.4504 66V47.9208H86.3115V51.0753H86.4999C86.8294 49.9532 87.3826 49.1057 88.1595 48.5329C88.9363 47.9522 89.8309 47.6619 90.8431 47.6619C91.0942 47.6619 91.3649 47.6776 91.6553 47.709C91.9456 47.7403 92.2006 47.7835 92.4203 47.8384V52.2876C92.1849 52.217 91.8593 52.1542 91.4434 52.0993C91.0275 52.0443 90.6469 52.0169 90.3017 52.0169C89.5641 52.0169 88.9049 52.1777 88.3243 52.4995C87.7514 52.8133 87.2963 53.2528 86.9589 53.8177C86.6293 54.3827 86.4646 55.034 86.4646 55.7716V66H81.4504Z" fill="white"/>
</svg>
