<svg width="64" height="64" viewBox="0 0 64 64" fill="none" xmlns="http://www.w3.org/2000/svg">
<mask id="path-1-inside-1_15_1283" fill="white">
<path d="M0 0H56C60.4183 0 64 3.58172 64 8V64H0V0Z"/>
</mask>
<path d="M0 -2H56C61.5228 -2 66 2.47715 66 8H62C62 4.68629 59.3137 2 56 2H0V-2ZM64 64H0H64ZM0 64V0V64ZM56 -2C61.5228 -2 66 2.47715 66 8V64H62V8C62 4.68629 59.3137 2 56 2V-2Z" fill="url(#paint0_linear_15_1283)" mask="url(#path-1-inside-1_15_1283)"/>
<defs>
<linearGradient id="paint0_linear_15_1283" x1="32" y1="0" x2="32" y2="64" gradientUnits="userSpaceOnUse">
<stop stop-color="#1388AB"/>
<stop offset="1" stop-color="#1E5492"/>
</linearGradient>
</defs>
</svg>
